<?xml version="1.0" standalone="no"?>
<!DOCTYPE svg PUBLIC "-//W3C//DTD SVG 20010904//EN"
 "http://www.w3.org/TR/2001/REC-SVG-20010904/DTD/svg10.dtd">
<svg version="1.0" xmlns="http://www.w3.org/2000/svg"
 width="1000.000000pt" height="1000.000000pt" viewBox="0 0 1000.000000 1000.000000"
 preserveAspectRatio="xMidYMid meet">
<metadata>
Created by potrace 1.14, written by Peter Selinger 2001-2017
</metadata>
<g transform="translate(0.000000,1000.000000) scale(0.100000,-0.100000)"
fill="#000000" stroke="none">
<path d="M1749 9996 c-2 -2 -31 -6 -64 -10 -33 -3 -71 -8 -85 -11 -14 -3 -38
-8 -55 -10 -16 -3 -37 -8 -45 -10 -8 -2 -29 -7 -46 -10 -90 -15 -315 -100
-433 -163 -209 -112 -423 -284 -574 -462 -228 -268 -386 -630 -432 -989 -19
-153 -19 -6502 0 -6662 76 -627 478 -1189 1055 -1474 119 -59 327 -132 425
-150 17 -3 68 -13 115 -23 80 -16 298 -17 3380 -17 2541 0 3311 3 3365 12 39
7 86 15 105 18 19 3 78 18 130 31 448 121 833 398 1092 789 160 243 250 481
304 805 11 63 15 6562 4 6635 -5 33 -11 76 -13 95 -22 157 -94 385 -174 543
-157 314 -375 562 -660 750 -54 35 -136 83 -183 107 -47 23 -93 46 -103 51
-75 40 -348 120 -457 134 -30 4 -64 10 -75 14 -21 6 -6569 14 -6576 7z"/>
</g>
</svg>
